<?xml version="1.0" encoding="UTF-8"?><svg id="a" xmlns="http://www.w3.org/2000/svg" viewBox="0 0 392.8 80.6"><path d="m212.4,50.2s0,0,0,0c0,0,0,0,0,0h-18.6s0,0,0,0c0,0,0,0,0,0l1.3-4.6s0,0,0,0h14.8s0,0,0,0l1.6-5.5s0,0,0,0c0,0,0,0,0,0h-14.7s0,0,0,0c0,0,0,0,0,0l.6-2.2s0,0,0,0l-2.8-1.9s0,0,0,0c0,0,0,0,0,0h21.7s0,0,0,0l1.8-6.2s0,0,0,0c0,0,0,0,0,0h-26.4s0,0,0,0l-7.8,27.1s0,0,0,0c0,0,0,0,0,0h26.7s0,0,0,0l1.8-6.3" vector-effect="non-scaling-stroke" style="fill:#11161c; stroke-width:0px;"/><path d="m174.1,29.3c.5,0,.9,0,1.4,0-.5,0-.9,0-1.4,0Z" style="fill:#11161c; stroke-width:0px;"/><path d="m176.9,29.3c.7,0,1.3,0,2,0-.7,0-1.4,0-2,0Z" style="fill:#11161c; stroke-width:0px;"/><path d="m175.5,29.3c.5,0,1,0,1.5,0-.5,0-1,0-1.5,0Z" style="fill:#11161c; stroke-width:0px;"/><path d="m185.2,31.1c.3.4.5.6.7.9-.2-.2-.4-.5-.7-.9Z" style="fill:#11161c; stroke-width:0px;"/><path d="m186.5,32.7c0,.1.2.2.2.4,0-.1-.1-.2-.2-.4Z" style="fill:#11161c; stroke-width:0px;"/><path d="m186.5,32.7c0,0,0-.1-.1-.2,0,0,0,0,0,0,0,0,0,0,0,0,0,0,0,.1.1.2Z" style="fill:#11161c; stroke-width:0px;"/><path d="m186.1,32.2c0,0,0,.1.1.2,0,0,0,0-.1-.2Z" style="fill:#11161c; stroke-width:0px;"/><path d="m152.7,56.5s0,0,0,0c0,0,0,0,0,0Z" style="fill:#11161c; stroke-width:0px;"/><polygon points="181.9 56.5 181.9 56.5 181.9 56.5 181.9 56.5" style="fill:#11161c; stroke-width:0px;"/><path d="m177.1,47.1s0,0,0,0c0,0,0,0,0,0Z" style="fill:#11161c; stroke-width:0px;"/><path d="m181.9,56.5s0,0,0,0c0,0,0,0,0,0Z" style="fill:#11161c; stroke-width:0px;"/><path d="m179.9,46.3c0,0-.2.1-.3.2,0,0,.2-.1.3-.2Z" style="fill:#11161c; stroke-width:0px;"/><path d="m152.8,56.5s0,0,0,0c0,0,0,0,0,0Z" style="fill:#11161c; stroke-width:0px;"/><path d="m183.7,29.5c-.2,0-.5-.1-.8-.1-1.2,0-2.3,0-3.3,0,1.1,0,2.2,0,3.3,0,.3,0,.6,0,.8.1Z" style="fill:#11161c; stroke-width:0px;"/><path d="m152.7,56.5s0,0,0,0c0,0,0,0,0,0Z" style="fill:#11161c; stroke-width:0px;"/><path d="m181.9,56.5s0,0,0,0c0,0,0,0,0,0Z" style="fill:#11161c; stroke-width:0px;"/><path d="m181.9,56.5s0,0,0,0c0,0,0,0,0,0Z" style="fill:#11161c; stroke-width:0px;"/><path d="m177.1,47.1s0,0,0,0c0,0,0,0,0,0,.5,0,1.1,0,1.6-.2-.5.1-1.1.2-1.6.2Z" style="fill:#11161c; stroke-width:0px;"/><path d="m177.1,47.1s0,0,0,0c0,0,0,0,0,0Z" style="fill:#11161c; stroke-width:0px;"/><path d="m186.6,35.6c-.1.4-.3.8-.4,1.3.1-.5.3-.9.4-1.3.2-.5.3-1,.3-1.5,0,.4-.1.9-.3,1.5Z" style="fill:#11161c; stroke-width:0px;"/><path d="m171.9,29.3c-5.9,0-9.6,0-11.3,0,0,0,0,0,0,0,0,0,0,0,0,0,1.6,0,5.4,0,11.3,0Z" style="fill:#11161c; stroke-width:0px;"/><path d="m152.8,56.5s0,0,0,0c0,0,0,0,0,0,0,0,0,0,0,0h8s0,0,0,0c0,0,0,0,0,0h-8Z" style="fill:#11161c; stroke-width:0px;"/><polygon points="177.1 47.1 177.1 47.1 177.1 47.1 177.1 47.1" style="fill:#11161c; stroke-width:0px;"/><path d="m183.7,43.5c.1,0,.2-.2.3-.3.3-.3.5-.7.7-1.1-.2.4-.4.8-.7,1.1,0,0-.2.2-.3.3Z" style="fill:#11161c; stroke-width:0px;"/><polygon points="181.9 56.5 181.9 56.5 181.9 56.5 181.9 56.5" style="fill:#11161c; stroke-width:0px;"/><path d="m181.9,56.5s0,0,0,0c0,0,0,0,0,0Z" style="fill:#11161c; stroke-width:0px;"/><path d="m168.4,47.1s0,0,0,0c0,0,0,0,0,0Z" style="fill:#11161c; stroke-width:0px;"/><path d="m181.2,45.4c.4-.3.8-.6,1.2-.9.3-.2.5-.4.7-.5-.2.2-.5.4-.7.5-.5.3-.9.6-1.2.9Z" style="fill:#11161c; stroke-width:0px;"/><path d="m177.1,47.1s0,0,0,0c0,0,0,0,0,0Z" style="fill:#11161c; stroke-width:0px;"/><path d="m181.2,45.4c-.1.1-.3.2-.4.3.1,0,.3-.2.4-.3Z" style="fill:#11161c; stroke-width:0px;"/><path d="m184.7,42.1c.2-.4.3-.9.4-1.2.3-1.3.7-2.4.9-3.4-.3,1-.6,2.1-.9,3.4-.1.4-.2.8-.4,1.2Z" style="fill:#11161c; stroke-width:0px;"/><path d="m163.7,47.1s0,0,0,0c0,0,0,0,0,0Z" style="fill:#11161c; stroke-width:0px;"/><path d="m181.9,56.4s0,0,0,0c0,0,0,0,0,0Z" style="fill:#11161c; stroke-width:0px;"/><path d="m181.9,56.5s0,0,0,0c0,0,0,0,0,0Z" style="fill:#11161c; stroke-width:0px;"/><path d="m160.5,29.4s0,0,0,0c0,0,0,0,0,0Z" style="fill:#11161c; stroke-width:0px;"/><path d="m184.4,30c0,0,.1.1.2.2,0,0-.1-.2-.2-.2Z" style="fill:#11161c; stroke-width:0px;"/><path d="m177.1,47.1s0,0,0,0c0,0,0,0,0,0Z" style="fill:#11161c; stroke-width:0px;"/><path d="m168.4,47.1s0,0,0,0c0,0,0,0,0,0Z" style="fill:#11161c; stroke-width:0px;"/><path d="m168.4,47.1l4.4,9.3s0,0,0,0c0,0,0,0,0,0l-4.4-9.3Z" style="fill:#11161c; stroke-width:0px;"/><path d="m160.9,56.5s0,0,0,0c0,0,0,0,0,0l2.7-9.3s0,0,0,0c0,0,0,0,0,0l-2.7,9.3Z" style="fill:#11161c; stroke-width:0px;"/><path d="m186.8,33.4c0,.2,0,.5,0,.7,0-.3,0-.5,0-.7Z" style="fill:#11161c; stroke-width:0px;"/><path d="m152.7,56.4s0,0,0,0c0,0,0,0,0,0,0,0,0,0,0,0Z" style="fill:#11161c; stroke-width:0px;"/><path d="m152.8,56.5s0,0,0,0c0,0,0,0,0,0Z" style="fill:#11161c; stroke-width:0px;"/><path d="m177.1,47.1s0,0,0,0c0,0,0,0,0,0Z" style="fill:#11161c; stroke-width:0px;"/><path d="m179,46.8c.1,0,.3-.1.4-.2,0,0,.1,0,.2-.2,0,0-.2.1-.2.2-.1,0-.2.1-.4.2Z" style="fill:#11161c; stroke-width:0px;"/><path d="m152.7,56.5s0,0,0,0c0,0,0,0,0,0Z" style="fill:#11161c; stroke-width:0px;"/><polygon points="177.1 47.1 177.1 47.1 177.1 47.1 177.1 47.1" style="fill:#11161c; stroke-width:0px;"/><path d="m152.8,56.5s0,0,0,0c0,0,0,0,0,0Z" style="fill:#11161c; stroke-width:0px;"/><path d="m186.9,34.1c0-.3,0-.5,0-.7s0-.2-.1-.4c0-.1-.1-.2-.2-.4,0,0,0-.1-.1-.2,0,0,0,0,0,0,0,0,0,0,0,0,0,0,0,0-.1-.2,0,0-.1-.1-.2-.2-.2-.2-.4-.5-.7-.9-.2-.2-.4-.5-.6-.7,0,0,0,0,0-.1,0,0-.1-.2-.2-.2-.2-.2-.5-.4-.7-.5-.2,0-.5-.1-.8-.1-1.2,0-2.3,0-3.3,0-.2,0-.4,0-.5,0-.7,0-1.4,0-2,0-.5,0-1,0-1.5,0-.5,0-.9,0-1.4,0h-2.2c-5.9,0-9.6,0-11.3,0,0,0,0,0,0,0s0,0,0,0l-7.8,27s0,0,0,0c0,0,0,0,0,0,0,0,0,0,0,0,0,0,0,0,0,0,0,0,0,0,0,0,0,0,0,0,0,0,0,0,0,0,0,0,0,0,0,0,0,0h8s0,0,0,0c0,0,0,0,0,0l2.7-9.3s0,0,0,0,0,0,0,0h4.6s0,0,0,0c0,0,0,0,0,0l4.4,9.3s0,0,0,0c0,0,0,0,0,0h8.9s0,0,0,0c0,0,0,0,0,0,0,0,0,0,0,0,0,0,0,0,0,0,0,0,0,0,0,0,0,0,0,0,0,0,0,0,0,0,0,0,0,0,0,0,0,0l-4.8-9.3s0,0,0,0c0,0,0,0,0,0,0,0,0,0,0,0,0,0,0,0,0,0,0,0,0,0,0,0,0,0,0,0,0,0,0,0,0,0,0,0,0,0,0,0,0,0,0,0,0,0,0,0,0,0,0,0,0,0,.5,0,1.1,0,1.6-.2,0,0,.2,0,.3,0,.1,0,.3-.1.4-.2,0,0,.1,0,.2-.2s.2-.1.3-.2c.2-.2.5-.4.9-.6.1,0,.3-.2.4-.3.4-.3.8-.6,1.2-.9.3-.2.5-.4.7-.5.2-.2.4-.3.6-.5.1,0,.2-.2.3-.3.3-.3.5-.7.7-1.1.2-.4.3-.9.4-1.2.3-1.3.7-2.4.9-3.4,0-.2.1-.4.2-.6.1-.5.3-.9.4-1.3.2-.5.3-1,.3-1.5Zm-8.6,2.1c0,.1,0,.3-.2.7-.3.8-.5,1.6-.7,2.4-.3,1-.6,1.7-1.7,1.7-.3,0-3.6,0-9.7,0-.2,0-.4,0-.5,0,0,0,0,0,0,0,0,0,0,0,0-.1l.9-3.1c0-.1,0-.3-.1-.4l-2.8-2s0,0,0,0c0,0,0,0,0,0,4.3,0,8.9,0,14,0,.3,0,.6,0,.7.2.2.2.3.4.3.7Z" style="fill:#11161c; stroke-width:0px;"/><path d="m212.4,50.2l-1.8,6.3s0,0,0,0h-26.7s0,0,0,0c0,0,0,0,0,0l7.8-27.1s0,0,0,0h26.4s0,0,0,0c0,0,0,0,0,0l-1.8,6.2s0,0,0,0h-21.7s0,0,0,0c0,0,0,0,0,0l2.8,1.9s0,0,0,0l-.6,2.2s0,0,0,0c0,0,0,0,0,0h14.7s0,0,0,0c0,0,0,0,0,0l-1.6,5.5s0,0,0,0h-14.8s0,0,0,0l-1.3,4.6s0,0,0,0c0,0,0,0,0,0h18.6s0,0,0,0c0,0,0,0,0,0Z" style="fill:#11161c; stroke-width:0px;"/><path d="m100.3,35.6s0,0,0,0c0,0,0,0,0,0l2.7,1.9s0,0,0,0l-3.3,11.7s0,0,0,0l.5.7c0,.1.2.2.4.2h18.1s0,0,0,0c0,0,0,0,0,0-.9,3-1.4,4.8-1.5,5.3,0,.1-.1.4-.3.9,0,0,0,0,0,0-8.7,0-15.8,0-21.4,0-.7,0-1.2-.1-1.6-.7-1.1-1.3-1.8-2.3-2.4-2.9-.5-.7-.7-1.4-.4-2.2,2-6.8,3.1-10.7,3.3-11.5.4-1.6.9-3,1.3-4.3.2-.5.4-1,.8-1.5.2-.3.7-.7,1.3-1.2,1.6-1.1,2.6-1.9,3.3-2.3.5-.3,1.1-.5,1.8-.5,11,0,18.3,0,21.7,0,0,0,0,0,0,0,0,0,0,0,0,0l-1.8,6.2s0,0,0,0h-22.6Z" style="fill:#11161c; stroke-width:0px;"/><path d="m100.3,35.6h22.6s0,0,0,0l1.8-6.2s0,0,0,0c0,0,0,0,0,0-3.4,0-10.7,0-21.7,0-.7,0-1.3.2-1.8.5-.6.4-1.7,1.2-3.3,2.3-.6.5-1.1.8-1.3,1.2-.4.5-.7,1.1-.8,1.5-.4,1.3-.8,2.7-1.3,4.3-.2.9-1.4,4.7-3.3,11.5-.2.8-.1,1.6.4,2.2.5.7,1.3,1.6,2.4,2.9.4.5.9.7,1.6.7,5.5,0,12.6,0,21.4,0,0,0,0,0,0,0,.2-.5.3-.8.3-.9.1-.5.6-2.3,1.5-5.3,0,0,0,0,0,0,0,0,0,0,0,0h-18.1c-.2,0-.3,0-.4-.2l-.5-.7s0,0,0,0l3.3-11.7s0,0,0,0l-2.7-1.9s0,0,0,0c0,0,0,0,0,0" vector-effect="non-scaling-stroke" style="fill:#11161c; stroke-width:0px;"/><path d="m222.3,64.2l11.1-9.1c0,0,.2-.1.3-.1,4.2,0,7,0,8.5,0,1.5,0,2.7,0,3.9-.3,3.5-.7,7-3.2,8.3-6.6.7-2,1.6-5.3,2.3-7.7.4-1.5.7-2.6.9-3.3.3-1.3.2-2.5-.3-3.7-.8-2-2.8-3.4-4.9-3.8-.8-.2-1.6-.3-2.4-.3-2.3,0-11.8,0-28.3,0,0,0,0,0,0,0,0,0,0,0,0,0,1.7,1.8,3.3,3.6,4.8,5.3.2.2.3.3.5.4,0,0,0,0,0,0,5.1,0,11.8,0,20.2,0,1.2,0,2.6.5,2.5,1.9,0,.4,0,.7-.1,1-.4,1.4-.7,2.4-.9,3.2-.4,1.2-.9,3.2-1.2,4.3-.2.6-.3,1-.4,1.1-.9,1.7-2.7,2.4-4.5,2.4-2.9,0-4.8,0-5.7,0-1.1,0-1.6,0-2.3.5,0,0,0,0,0,0,0,0,0,0,0,0l3.4-11.6s0,0,0,0c0,0,0,0,0,0h-7.7c0,0,0,0-.1,0l-7.6,26.1s0,0,0,0c0,0,0,0,0,0" vector-effect="non-scaling-stroke" style="fill:#11161c; stroke-width:0px;"/><path d="m293.2,29.3s0,0,0,0l-7.4,25.5c0,0,0,.1,0,.1,0,0,0,0,0,0h7.6s0,0,0,0l7.4-25.5c0,0,0-.1,0-.1,0,0,0,0,0,0h-7.6" vector-effect="non-scaling-stroke" style="fill:#11161c; stroke-width:0px;"/><path d="m302.6,29.3s0,0,0,0c0,0,0,0,0,0,.5,4.2,1,8.1,1.6,13,.5,3.7.8,6.3.9,7.6.2,1.5.4,3.1.7,4.9,0,0,0,0,0,0h8.8c0,0,.1,0,.1,0l18.3-25.5s0,0,0,0c0,0,0,0,0,0h-8.2s0,0,0,0l-12.2,17.5s0,0-.1,0c0,0,0,0,0,0l-1.7-17.5s0,0,0,0h-8" vector-effect="non-scaling-stroke" style="fill:#11161c; stroke-width:0px;"/><path d="m337.8,35.2h21c0,0,.2,0,.2-.1l1.6-5.6s0,0,0-.1c0,0,0,0,0,0h-25.5s0,0,0,0c-.4,1.2-.7,2.3-1,3.4-.7,2.6-1,3.5-1.6,5.8,0,.2-.3,1-.7,2.4-.9,3.1-1.7,5.9-2.4,8.4-.5,1.9-1.1,3.6-1.6,5.5,0,0,0,0,0,.1,0,0,0,0,0,0h25.8s0,0,0,0l1.6-5.7s0,0,0,0c0,0,0,0,0,0h-18s0,0,0,0c0,0,0,0,0,0l1.3-4.3s0,0,.1,0c4.5,0,9.2,0,13.9,0,.2,0,.3,0,.3,0,0,0,.1-.1.2-.2.6-2.1,1.1-3.7,1.5-5.1,0,0,0,0,0,0,0,0,0,0,0,0h-14.2s0,0,0,0c0,0,0,0,0,0l.6-2c0,0,0-.2,0-.2l-2.7-1.8s0,0,0,0c0,0,0,0,0,0" vector-effect="non-scaling-stroke" style="fill:#11161c; stroke-width:0px;"/><path d="m392.8,29.4s0,0,0,0c0,0,0,0,0,0h-7.7s0,0,0,0l-4.4,15.2s0,0,0,0c0,0,0,0,0,0l-7.9-15.3s0,0,0,0h-8.3s0,0,0,0l-7.4,25.5s0,0,0,0c0,0,0,0,0,0h7.7s0,0,0,0l4.5-15.7s0,0,0,0c0,0,0,0,0,0l8.1,15.7s0,0,0,0h7.9s0,0,0,0l7.4-25.5" vector-effect="non-scaling-stroke" style="fill:#11161c; stroke-width:0px;"/><path d="m155.3,33c-.5-.6-1.3-1.6-2.4-3-.4-.4-.9-.7-1.5-.6-.2,0-5.8,0-16.8,0-1.2,0-1.9,0-2.8.6-1.1.8-2.1,1.5-3,2.1-.8.6-1.3,1-1.5,1.4-.4.6-.7,1.2-.9,1.9-.4,1.5-1.2,4.2-2.4,8.2-.5,1.9-1.4,4.8-2.1,7.2-.2.7-.2,1.2.2,1.8.7,1.1,1.7,2.3,2.5,3.1.8.9,1.3.9,2.6.9,3,0,8.3,0,15.8,0,.7,0,1.3,0,1.7-.2.5-.2,1-.4,1.5-.8,1-.7,2-1.5,3.1-2.3.6-.5,1-.8,1.2-1.2.4-.6.7-1.1.8-1.5.5-2,1-3.5,1.3-4.6.8-2.6,1.2-4.2,1.8-6.3.4-1.3.8-3,1.2-4.3.3-.9.4-1.7-.1-2.4Zm-8.4,3.8c-.7,2.4-1.2,4.2-1.5,5.3-.6,2.2-1.3,4.5-2,6.8-.1.4-.2.5-.5.8-.3.3-.6.5-1,.5-3.2,0-6.6,0-10.3,0-.5,0-.9-.5-1.2-.8,0,0,0,0,0-.1l3.4-11.7s0,0,0,0l-2.7-1.9s0,0,0,0c0,0,0,0,0,0,4.7,0,9.6,0,14.7,0,.5,0,1,.6,1.2,1,0,0,0,.2,0,.3Z" style="fill:#11161c; stroke-width:0px;"/><path d="m222.3,64.2s0,0,0,0c0,0,0,0,0,0l7.6-26.1c0,0,0,0,.1,0h7.7s0,0,0,0c0,0,0,0,0,0l-3.4,11.6s0,0,0,0c0,0,0,0,0,0,.8-.5,1.2-.5,2.3-.5.8,0,2.7,0,5.7,0,1.8,0,3.7-.7,4.5-2.4,0-.1.2-.5.4-1.1.3-1.1.8-3,1.2-4.3.2-.8.6-1.8.9-3.2,0-.3.1-.7.1-1,0-1.4-1.3-1.9-2.5-1.9-8.4,0-15.1,0-20.2,0,0,0,0,0,0,0-.1,0-.3-.2-.5-.4-1.5-1.7-3.1-3.4-4.8-5.3,0,0,0,0,0-.1,0,0,0,0,0,0,16.5,0,26,0,28.3,0,.8,0,1.6,0,2.4.3,2.1.4,4.1,1.9,4.9,3.8.5,1.1.6,2.4.3,3.7-.2.7-.5,1.8-.9,3.3-.7,2.4-1.5,5.7-2.3,7.7-1.3,3.4-4.7,5.9-8.3,6.6-1.2.3-2.4.3-3.9.3-1.5,0-4.3,0-8.5,0-.1,0-.2,0-.3.1l-11.1,9.1Z" style="fill:#11161c; stroke-width:0px;"/><path d="m287.9,32.1c-.9-1.1-1.5-1.9-1.8-2.2-.6-.7-1.4-.6-2.2-.6-8.1,0-15,0-20.9,0,0,0,0,0,0,0l-7.3,25.5s0,0,0,.1c0,0,0,0,0,0h7.6s0,0,0,0l2.6-8.8s0,0,0,0h4.5s0,0,0,0l4.4,8.7c0,0,.1.2.3.2h8.4s0,0,0,0c0,0,0,0,0,0l-4.7-8.8s0,0,0,0c0,0,0,0,0,0,.9,0,1.7,0,2.4-.6.3-.2.5-.4.6-.5.7-.4,1.7-1.2,3.2-2.3.6-.4.9-1,1.2-1.8,1.1-3.8,1.7-6,1.9-6.6.2-.8,0-1.5-.5-2.1Zm-7.8,3.7c-.3,1.1-.6,2.1-.9,3.2-.3.8-.5,1.3-1.5,1.3-3.4,0-6.7,0-10,0,0,0,0,0,0,0,0,0,0,0,0,0l.9-3.1c0-.1,0-.2-.1-.3l-2.7-1.8s0,0,0,0c0,0,0,0,0,0,4.8,0,9.4,0,13.6,0,.4,0,.6.2.8.5,0,.1,0,.2,0,.3Z" style="fill:#11161c; stroke-width:0px;"/><path d="m293.2,29.3h7.6c0,0,0,0,0,0,0,0,0,0,0,0l-7.4,25.5s0,0,0,0h-7.6c0,0,0,0,0,0,0,0,0,0,0,0l7.4-25.5s0,0,0,0Z" style="fill:#11161c; stroke-width:0px;"/><path d="m302.6,29.3h8s0,0,0,0l1.7,17.5s0,0,0,0c0,0,0,0,0,0l12.2-17.5s0,0,0,0h8.2s0,0,0,0c0,0,0,0,0,0l-18.3,25.5s0,0-.1,0h-8.8s0,0,0,0c-.3-1.8-.5-3.4-.7-4.9-.2-1.4-.5-3.9-.9-7.6-.6-4.9-1.1-8.7-1.6-13,0,0,0,0,0,0,0,0,0,0,0,0Z" style="fill:#11161c; stroke-width:0px;"/><path d="m337.8,35.2s0,0,0,0c0,0,0,0,0,0l2.7,1.8c0,0,.1.1,0,.2l-.6,2s0,0,0,0c0,0,0,0,0,0h14.2s0,0,0,0c0,0,0,0,0,0-.3,1.3-.8,3-1.5,5.1,0,.1-.1.2-.2.2,0,0-.1,0-.3,0-4.7,0-9.3,0-13.9,0,0,0,0,0-.1,0l-1.3,4.3s0,0,0,0c0,0,0,0,0,0h18s0,0,0,0c0,0,0,0,0,0l-1.6,5.7s0,0,0,0h-25.8s0,0,0,0c0,0,0,0,0,0,.5-2,1.1-3.7,1.6-5.5.7-2.5,1.5-5.3,2.4-8.4.4-1.5.7-2.3.7-2.4.6-2.3.9-3.2,1.6-5.8.3-1.1.6-2.2,1-3.4,0,0,0,0,0,0h25.5c0,0,0,0,0,0,0,0,0,0,0,0l-1.6,5.6c0,0,0,.1-.2.1h-21Z" style="fill:#11161c; stroke-width:0px;"/><path d="m392.8,29.4l-7.4,25.5s0,0,0,0h-7.9s0,0,0,0l-8.1-15.7s0,0,0,0c0,0,0,0,0,0l-4.5,15.7s0,0,0,0h-7.7s0,0,0,0c0,0,0,0,0,0l7.4-25.5s0,0,0,0h8.3s0,0,0,0l7.9,15.3s0,0,0,0c0,0,0,0,0,0l4.4-15.2s0,0,0,0h7.7s0,0,0,0c0,0,0,0,0,0Z" style="fill:#11161c; stroke-width:0px;"/><path d="m253.3,62.8s0,0,0,0h-1.6s0,0,0,0l-2.1,6.8s0,0,0,0h1.6s0,0,0,0h0l2.1-6.8" vector-effect="non-scaling-stroke" style="fill:#11161c; stroke-width:0px;"/><path d="m261.6,66.7c.4.6.9,1.6,1.6,2.9,0,0,0,0,.2,0h1.7s0,0,0,0l2.1-6.8s0,0,0,0h-1.6s0,0,0,0h0l-1.4,4.5s0,0,0,0c0,0,0,0,0,0,0,0,0,0-.1-.1-.3-.5-.6-1-.8-1.5-.4-.6-.9-1.6-1.6-2.9,0,0,0,0-.2,0h-1.7s0,0,0,0l-2.1,6.8s0,0,0,0h1.6s0,0,0,0h0l1.4-4.5s0,0,0,0c0,0,0,0,0,0,0,0,0,0,.1.1.3.5.5,1,.8,1.5" vector-effect="non-scaling-stroke" style="fill:#11161c; stroke-width:0px;"/><path d="m288.7,69.7c1,0,1.6,0,1.6,0,.5,0,.9-.1,1.4-.3.8-.4,1.1-1.3,1.4-2,.8-2.5,1.2-4.1,1.4-4.6,0,0,0,0,0,0h-1.6s0,0,0,0c0,0,0,0,0,0-.4,1.2-.8,2.8-1.4,4.6-.3,1.1-1.4.9-2.2.9-.8,0-2,.2-1.6-.9.5-1.9,1-3.4,1.4-4.6,0,0,0,0,0,0,0,0,0,0,0,0h-1.6s0,0-.1,0c-.1.5-.6,2-1.4,4.6-.2.7-.4,1.6.1,2,.3.2.7.4,1.2.3,0,0,.6,0,1.6,0" vector-effect="non-scaling-stroke" style="fill:#11161c; stroke-width:0px;"/><path d="m299,67.6c0,0,0,.3-.1.6-.2.7.1,1.3.7,1.5.1,0,.6,0,1.4,0,1.3,0,2.2,0,2.8,0,.5,0,.8,0,1.1-.1,1.3-.4,1.5-1.5,1.8-2.6.3-1-.4-1.4-1.2-1.4-.6,0-1.7,0-3.3-.2-.3,0-.5-.3-.4-.6v-.3c.2-.3.5-.5.8-.5h2.7c0,0,.2,0,.2,0,0,.1.1.3,0,.5,0,0,0,.1.1.1h1.4s0,0,.1,0c.4-1.3.2-2-1.1-2-.9,0-2,0-3.3,0s-1.8.2-2.3,1.2c-.2.4-.3.8-.5,1.4-.3,1.2.7,1.5,1.7,1.5.4,0,1.3,0,2.6,0,.3,0,.7.1.6.5,0,.4-.3.9-.8.9-.5,0-1.2,0-2,0-.7,0-1.4,0-1.1-.7,0,0,0-.1,0-.1,0,0,0,0,0,0h-1.6s0,0-.1,0" vector-effect="non-scaling-stroke" style="fill:#11161c; stroke-width:0px;"/><path d="m315,69.7c.5,0,.7,0,.8,0,0,0,0,0,0,0,0,0,0,0,0,0l1.6-5.4s0,0,0,0h2.6s0,0,0,0h0l.4-1.3s0,0,0,0h0c-.6,0-1.8,0-3.6,0-1.8,0-3,0-3.6,0,0,0,0,0,0,0l-.4,1.3s0,0,0,0h2.6s0,0,0,0h0s-1.6,5.4-1.6,5.4c0,0,0,0,0,0,0,0,0,0,0,0,0,0,.3,0,.8,0" vector-effect="non-scaling-stroke" style="fill:#11161c; stroke-width:0px;"/><path d="m341.8,62.8s0,0,0,0h-1.6s0,0,0,0l-2.1,6.9s0,0,0,0h1.6s0,0,0,0l2.1-6.9" vector-effect="non-scaling-stroke" style="fill:#11161c; stroke-width:0px;"/><path d="m346,69.6s0,0,0,0h6.6s0,0,0,0h0s.4-1.3.4-1.3c0,0,0,0,0,0h-4.9s0,0,0,0h0s.4-1.2.4-1.2c0,0,0,0,0,0h4.1s0,0,0,0l.4-1.2s0,0,0,0h-4.2s0,0,0,0h0l.4-1.3s0,0,0,0h4.8s0,0,0,0h0s.4-1.3.4-1.3c0,0,0,0,0,0h-6.5s0,0,0,0h0s-2.1,6.8-2.1,6.8" vector-effect="non-scaling-stroke" style="fill:#11161c; stroke-width:0px;"/><path d="m367.3,64.7c0-.2,0-.4.1-.5.3-1-.5-1.4-1.2-1.4-.8,0-1.9,0-3.3,0-.5,0-.8,0-1.1.1-1.1.3-1.5,1.6-1.7,2.5-.3,1.1.5,1.4,1.4,1.5,0,0,1,0,2.8.1.3,0,.7.1.7.4,0,.3-.2.8-.6.9-.3,0-.5,0-.8,0-1.1,0-1.8,0-1.9,0-.5,0-.7-.2-.6-.7,0,0,0,0,0,0h-1.6s0,0,0,0c0,0,0,0,0,0,0,.5-.2.8-.1,1.2.1.6.6.9,1.3.9,2.2,0,3.5,0,3.8,0,.5,0,.8,0,1-.1,1-.4,1.2-1.3,1.5-2.1,0-.3.1-.6.2-.7.1-.9-.7-1.1-1.5-1.2-.6,0-1.6,0-3.1-.1-.3,0-.5-.3-.4-.6v-.3c.2-.3.5-.5.7-.5,0,0,0,0,0,0h2.8s0,0,0,0c.2,0,.3.3.2.6,0,0,0,0,0,0h1.5s0,0,0,0c0,0,0,0,0,0" vector-effect="non-scaling-stroke" style="fill:#11161c; stroke-width:0px;"/><path d="m251.6,62.7h1.6s0,0,0,0l-2.1,6.8s0,0,0,0h-1.6s0,0,0,0l2.1-6.8s0,0,0,0Z" style="fill:#11161c; stroke-width:0px;"/><path d="m263.1,65.7c.3.5.5,1,.8,1.5,0,0,0,0,.1.1,0,0,0,0,0,0,0,0,0,0,0,0l1.4-4.5s0,0,0,0h1.6s0,0,0,0h0l-2.1,6.8s0,0,0,0h-1.7c0,0-.1,0-.2,0-.7-1.3-1.2-2.2-1.6-2.9-.3-.5-.5-1-.8-1.5,0,0,0,0-.1-.1,0,0,0,0,0,0,0,0,0,0,0,0l-1.4,4.5s0,0,0,0h-1.6s0,0,0,0h0s2.1-6.8,2.1-6.8c0,0,0,0,0,0h1.7c0,0,.1,0,.2,0,.7,1.3,1.2,2.2,1.6,2.9Z" style="fill:#11161c; stroke-width:0px;"/><path d="m278.9,68.7c0,0-.1.1-.2.2,0,0,.1-.1.2-.2Z" style="fill:#11161c; stroke-width:0px;"/><path d="m276.7,69.7c.2,0,.3,0,.5,0-.1,0-.3,0-.5,0h0Z" style="fill:#11161c; stroke-width:0px;"/><path d="m278,69.3c-.1,0-.2.1-.3.1.1,0,.2,0,.3-.1Z" style="fill:#11161c; stroke-width:0px;"/><path d="m271.4,69.7h0s0,0,0,0c0,0,0,0,0,0Z" style="fill:#11161c; stroke-width:0px;"/><path d="m277.7,69.5c-.1,0-.3,0-.4.1.1,0,.3,0,.4-.1Z" style="fill:#11161c; stroke-width:0px;"/><path d="m273.5,62.8s0,0,0,0h0s0,0,0,0l-2.1,6.9s0,0,0,0c0,0,0,0,0,0l2.1-6.9Z" style="fill:#11161c; stroke-width:0px;"/><path d="m280,63.1c.4.4.6.9.4,1.6h0c.2-.6,0-1.2-.4-1.6Z" style="fill:#11161c; stroke-width:0px;"/><path d="m278.8,62.7h0c.2,0,.3,0,.4,0-.1,0-.3,0-.4,0Z" style="fill:#11161c; stroke-width:0px;"/><path d="m279.4,62.8c.2,0,.4.2.6.3-.2-.1-.4-.2-.6-.3Z" style="fill:#11161c; stroke-width:0px;"/><path d="m280,63.1s0,0,0,0c-.2-.1-.4-.2-.6-.3,0,0,0,0,0,0-.1,0-.3,0-.4,0h-5.3s0,0,0,0l-2.1,6.9s0,0,0,0,0,0,0,0h5.3c.2,0,.3,0,.5,0,0,0,0,0,.1,0,.1,0,.3,0,.4-.1.1,0,.2,0,.3-.1.2-.1.5-.3.7-.5,0,0,.1-.1.2-.2.3-.3.5-.6.6-1l.9-3c.2-.6,0-1.2-.4-1.6Zm-2.1,4.2c-.2.5-.8,1-1.4,1h-2.9c0,0,0,0,0-.1l1.2-3.9c0,0,0-.1.1-.1h2.9c.6,0,.9.4.8,1l-.7,2.2Z" style="fill:#11161c; stroke-width:0px;"/><path d="m289.1,68.3c.8,0,1.9.2,2.2-.9.6-1.9,1.1-3.4,1.4-4.6,0,0,0,0,0,0,0,0,0,0,0,0h1.6s0,0,0,0h0c-.2.5-.6,2-1.4,4.6-.2.7-.5,1.6-1.4,2-.5.2-.9.4-1.4.3,0,0-.6,0-1.6,0-1,0-1.6,0-1.6,0-.5,0-.8-.1-1.2-.3-.6-.4-.4-1.3-.1-2,.8-2.5,1.2-4.1,1.4-4.6,0,0,0,0,.1,0h1.6s0,0,0,0c0,0,0,0,0,0-.4,1.2-.9,2.8-1.4,4.6-.3,1.1.9.9,1.6.9Z" style="fill:#11161c; stroke-width:0px;"/><path d="m299,67.6s0,0,.1,0h1.6c0,0,.1,0,0,.1,0,0,0,0,0,0-.2.8.5.7,1.1.7.8,0,1.5,0,2,0,.5,0,.8-.5.8-.9,0-.4-.3-.5-.6-.5-1.3,0-2.2,0-2.6,0-1,0-2-.3-1.7-1.5.2-.6.3-1.1.5-1.4.5-1.1,1.4-1.2,2.3-1.2s2.4,0,3.3,0c1.3,0,1.6.7,1.1,2,0,0,0,0-.1,0h-1.4c0,0-.1,0-.1-.1,0-.2,0-.4,0-.5,0,0-.1,0-.2,0h-2.7c-.3,0-.6.2-.7.5h0v.3c-.2.3,0,.6.3.6,1.6,0,2.7.1,3.3.2.9,0,1.5.4,1.2,1.4-.3,1.1-.5,2.2-1.8,2.6-.2,0-.6.1-1.1.1-.6,0-1.5,0-2.8,0-.8,0-1.3,0-1.4,0-.6-.2-.9-.8-.7-1.5,0-.3.1-.5.1-.6Z" style="fill:#11161c; stroke-width:0px;"/><path d="m317.1,62.7c1.8,0,3,0,3.6,0,0,0,0,0,0,0h0l-.4,1.3s0,0,0,0h-2.6s0,0,0,0h0s-1.6,5.4-1.6,5.4c0,0,0,0,0,0,0,0,0,0,0,0,0,0-.3,0-.8,0-.5,0-.7,0-.8,0,0,0,0,0,0,0,0,0,0,0,0,0l1.6-5.4s0,0,0,0h-2.6s0,0,0,0h0l.4-1.3s0,0,0,0c.6,0,1.8,0,3.6,0Z" style="fill:#11161c; stroke-width:0px;"/><path d="m331,67.4s0,0,0,0c0,0,0,0,0,0,0,0,0,0,0,0Z" style="fill:#11161c; stroke-width:0px;"/><path d="m331.9,69.6s0,0,0,0c0,0,0,0,0,0Z" style="fill:#11161c; stroke-width:0px;"/><path d="m331,67.3s0,0,0,0c0,0,0,0,0,0Z" style="fill:#11161c; stroke-width:0px;"/><path d="m324.4,69.7s0,0,0,0c0,0,0,0,0,0Z" style="fill:#11161c; stroke-width:0px;"/><path d="m324.5,69.7h0s0,0,0,0c0,0,0,0,0,0Z" style="fill:#11161c; stroke-width:0px;"/><polygon points="331.9 69.6 331.9 69.6 331.9 69.6 331.9 69.6" style="fill:#11161c; stroke-width:0px;"/><path d="m331,67.3s0,0,0,0c0,0,0,0,0,0Z" style="fill:#11161c; stroke-width:0px;"/><path d="m331.9,69.6s0,0,0,0c0,0,0,0,0,0Z" style="fill:#11161c; stroke-width:0px;"/><path d="m326.8,67.5s0,0,0,0c0,0,0,0,0,0Z" style="fill:#11161c; stroke-width:0px;"/><path d="m331,67.3s0,0,0,0c0,0,0,0,0,0Z" style="fill:#11161c; stroke-width:0px;"/><path d="m331.9,69.7s0,0,0,0c0,0,0,0,0,0Z" style="fill:#11161c; stroke-width:0px;"/><path d="m331,67.3s0,0,0,0c0,0,0,0,0,0Z" style="fill:#11161c; stroke-width:0px;"/><path d="m324.4,69.7s0,0,0,0c0,0,0,0,0,0Z" style="fill:#11161c; stroke-width:0px;"/><polygon points="331.9 69.7 331.9 69.7 331.9 69.7 331.9 69.7" style="fill:#11161c; stroke-width:0px;"/><path d="m324.4,69.6s0,0,0,0c0,0,0,0,0,0h0Z" style="fill:#11161c; stroke-width:0px;"/><path d="m331,67.3s0,0,0,0c0,0,0,0,0,0,0,0,0,0,0,0Z" style="fill:#11161c; stroke-width:0px;"/><path d="m331,67.3s0,0,0,0c0,0,0,0,0,0Z" style="fill:#11161c; stroke-width:0px;"/><path d="m331,67.3s0,0,0,0c0,0,0,0,0,0Z" style="fill:#11161c; stroke-width:0px;"/><path d="m331.9,69.6s0,0,0,0c0,0,0,0,0,0Z" style="fill:#11161c; stroke-width:0px;"/><path d="m331.9,69.6s0,0,0,0c0,0,0,0,0,0Z" style="fill:#11161c; stroke-width:0px;"/><path d="m331.9,69.6s0,0,0,0c0,0,0,0,0,0Z" style="fill:#11161c; stroke-width:0px;"/><path d="m331.9,69.6s0,0,0,0c0,0,0,0,0,0,0,0,0,0,0,0l-.9-2.2s0,0,0,0c0,0,0,0,0,0,0,0,0,0,0,0,0,0,0,0,0,0,0,0,0,0,0,0,0,0,0,0,0,0,0,0,0,0,0,0,0,0,0,0,0,0,0,0,0,0,0,0,0,0,0,0,0,0,.3,0,.5-.2.7-.2.8-.3,1.1-1.1,1.3-1.8.2-.8.4-1.2.3-1.4,0-.9-.9-1.1-1.7-1.1-.4,0-2,0-5,0,0,0,0,0-.1,0l-2.1,6.8s0,0,0,0,0,0,0,0c0,0,0,0,0,0,0,0,0,0,0,0h1.6s0,0,0,0l.7-2.1s0,0,0,0c0,0,0,0,0,0h1.9c0,0,0,0,.1,0l.9,2.2s0,0,0,0h1.9s0,0,0,0c0,0,0,0,0,0,0,0,0,0,0,0,0,0,0,0,0,0s0,0,0,0Zm-.6-4.3h0c-.1.4-.5.7-.9.7h-3c-.1,0-.2,0-.1-.2l.5-1.5c0-.1.1-.2.2-.2h3c.4,0,.6.3.5.7l-.2.5Z" style="fill:#11161c; stroke-width:0px;"/><path d="m340.1,62.7h1.6s0,0,0,0l-2.1,6.9s0,0,0,0h-1.6s0,0,0,0l2.1-6.9s0,0,0,0Z" style="fill:#11161c; stroke-width:0px;"/><path d="m346,69.6l2.1-6.8s0,0,0,0h6.5s0,0,0,0h0s-.4,1.3-.4,1.3c0,0,0,0,0,0h-4.8s0,0,0,0l-.4,1.3s0,0,0,0h4.2s0,0,0,0l-.4,1.2s0,0,0,0h-4.1s0,0,0,0h0s-.4,1.2-.4,1.2c0,0,0,0,0,0h4.9s0,0,0,0h0s-.4,1.3-.4,1.3c0,0,0,0,0,0h-6.6s0,0,0,0h0Z" style="fill:#11161c; stroke-width:0px;"/><path d="m367.3,64.7s0,0,0,0c0,0,0,0,0,0h-1.5s0,0,0,0c0-.3,0-.5-.2-.6,0,0,0,0,0,0h-2.8c-.3,0-.6.2-.6.5,0,0,0,0,0,0v.3c-.2.3,0,.6.3.6,1.5,0,2.5,0,3.1.1.8,0,1.6.3,1.5,1.2,0,.1,0,.3-.2.7-.2.8-.5,1.7-1.5,2.1-.2,0-.5.1-1,.1-.4,0-1.7,0-3.8,0-.7,0-1.2-.3-1.3-.9,0-.3,0-.7.1-1.2,0,0,0,0,0,0,0,0,0,0,0,0h1.6s0,0,0,0c-.1.5,0,.7.6.7.2,0,.8,0,1.9,0,.3,0,.6,0,.8,0,.4,0,.6-.6.6-.9,0-.3-.4-.4-.7-.4-1.8,0-2.8-.1-2.8-.1-.9-.1-1.6-.4-1.4-1.5.2-.9.6-2.2,1.7-2.5.3,0,.7-.1,1.1-.1,1.4,0,2.5,0,3.3,0,.8,0,1.5.4,1.2,1.4,0,.1,0,.3-.1.5Z" style="fill:#11161c; stroke-width:0px;"/><path d="m47.2,64.8h28c.3,0,.6-.2.8-.5l4.5-7.6c.2-.3.7-.3.8,0l10.3,17.6c.2.3,0,.7-.4.7h-37.8c-.2,0-.3,0-.4-.2l-6.2-9.3c-.2-.3,0-.8.4-.8Z" style="fill:#11161c; stroke-width:0px;"/><path d="m63,10.2l-4.8-8.3c-.7-1.2-2-2-3.4-2h-29.9c-1.4,0-2.7.8-3.4,2L.4,38.9c-.5.9-.5,1.9,0,2.8l21.2,36.9c.7,1.2,2,2,3.4,2h24c.6,0,.9-.6.6-1.1l-9.3-14.1c-.1-.2-.4-.3-.6-.3h-7.2c-.6,0-1.1-.3-1.4-.8l-13.3-23.1c-.3-.5-.3-1.1,0-1.6l13.3-23.2c.3-.5.8-.8,1.4-.8h16.8c.6,0,1.1.3,1.4.8l7.2,12.5c.1.2.4.4.6.5l4.9-18.7c-.2,0-.4-.2-.5-.3Z" style="fill:#11161c; stroke-width:0px;"/><path d="m86.8,0h-2.8c-.7,0-1.3.2-1.9.5l-18.2,10c-.2,0-.4.1-.5,0l-4.9,18.7c.2,0,.4,0,.7-.1l18.2-10.1c.6-.4,1.4.4,1,1h0c0,0,9.1-14.4,9.7-15.5.7-1.1,1.5-4.1-1.2-4.6Z" style="fill:#6393c2; stroke-width:0px;"/><path d="m62.2,47.5h-10.2c-.3,0-.6-.2-.8-.4l-6-9.3c-.2-.4-.1-.8.3-1l7.4-4.1c.4-.2.5-.7.3-1.1l-6.2-10.8c-.2-.4-.6-.5-1-.3l-12.2,6.9c-.4.2-.8.6-1,1l-4.3,7.3c-.3.5-.3,1.2,0,1.6l13.8,21.4c.1.2.3.3.4.4l19.8-11.6c-.1,0-.2,0-.4,0Z" style="fill:#11161c; stroke-width:0px;"/><path d="m97,14.1l-7-12.4c-.6-1-1.7-1.7-2.8-1.7h-.3c2.7.5,1.9,3.5,1.2,4.6-.7,1.1-9.7,15.6-9.7,15.6l-15.4,27c0,.1-.2.2-.3.3h0s10.1,11.7,10.1,11.7c.1,0,.3-.2.4-.4l23.9-41.9c.5-.8.5-1.8,0-2.7Z" style="fill:#8db7e0; stroke-width:0px;"/><path d="m62.6,47.4s0,0,0,0h0Z" style="fill:#5ba5f0; stroke-width:0px;"/><path d="m62.6,47.4s0,0,0,0l-19.8,11.6c.2.1.4.2.7.2h28.7c.2,0,.4,0,.5-.2l-10.1-11.7h0Z" style="fill:#6393c2; stroke-width:0px;"/></svg>